<svg width="42" height="42" viewBox="0 0 42 42" fill="none" xmlns="http://www.w3.org/2000/svg">
<path d="M33.593 15.578L33.6201 15.5467C38.6653 9.62635 43.5797 2.75989 41.4142 0.590108C40.4069 -0.421508 38.2428 -0.808512 30.3832 5.20569L26.8262 7.89053C23.5426 6.43331 19.8317 6.26145 16.4275 7.40893C13.0233 8.55642 10.1736 10.9397 8.44225 14.0873C6.71087 17.235 6.22381 20.9178 7.0774 24.4073C7.931 27.8968 10.0631 30.9389 13.052 32.9319C7.16866 37.788 3.34131 39.8667 2.18884 39.8667H2.149C2.16323 39.3758 2.54881 37.4024 6.76743 31.8549C6.93875 31.6294 7.01348 31.3451 6.97519 31.0645C6.9369 30.784 6.78873 30.5301 6.56326 30.3588C6.33779 30.1875 6.0535 30.1127 5.77293 30.151C5.49236 30.1893 5.23849 30.3375 5.06718 30.563C-0.799056 38.2831 -0.412052 40.4187 0.585335 41.4161C0.777934 41.6115 1.00942 41.7643 1.26482 41.8645C1.52021 41.9648 1.79381 42.0103 2.0679 41.9981C3.40392 41.9981 5.70033 41.1017 9.97301 38.0142C11.5538 36.876 13.264 35.5314 15.0496 34.0303C17.2324 35.0319 19.6321 35.4683 22.0278 35.2995C24.4235 35.1306 26.7383 34.3619 28.759 33.0641C30.7798 31.7663 32.4417 29.981 33.5918 27.8727C34.7418 25.7643 35.3431 23.4005 35.3402 20.9988C35.3402 20.7158 35.2278 20.4444 35.0277 20.2443C34.8276 20.0442 34.5561 19.9317 34.2731 19.9317C33.9901 19.9317 33.7187 20.0442 33.5186 20.2443C33.3185 20.4444 33.206 20.7158 33.206 20.9988C33.2113 22.9588 32.7435 24.8912 31.8423 26.6317C30.9411 28.3723 29.6332 29.8696 28.0296 30.9965C26.4259 32.1235 24.574 32.8468 22.6311 33.1049C20.6882 33.3631 18.7116 33.1485 16.8694 32.4795C19.4745 30.2129 22.2035 27.6633 24.931 24.9386C25.8387 24.0365 29.7486 20.084 33.593 15.578ZM31.6751 6.91306C37.3592 2.5607 39.3711 2.17227 39.8648 2.15662C39.9075 3.2721 37.8358 7.11368 32.9257 13.0724C31.8602 11.4634 30.4792 10.0873 28.8665 9.02735L31.6751 6.91306ZM14.7721 31.4878C13.1704 30.5411 11.8064 29.2406 10.7846 27.6857C9.76275 26.1308 9.11018 24.3628 8.87679 22.5169C8.6434 20.671 8.83538 18.7962 9.43804 17.0359C10.0407 15.2756 11.0381 13.6765 12.3538 12.361C13.6696 11.0455 15.2688 10.0484 17.0292 9.44604C18.7896 8.84368 20.6644 8.65202 22.5103 8.88573C24.3561 9.11943 26.1241 9.7723 27.6788 10.7944C29.2335 11.8165 30.5338 13.1807 31.4802 14.7826C29.2819 17.3437 26.6255 20.232 23.4271 23.4304C20.2286 26.6289 17.336 29.2895 14.7721 31.4878Z" fill="#FF42AB"/>
</svg>
