<svg width="32" height="34" viewBox="0 0 32 34" fill="none" xmlns="http://www.w3.org/2000/svg">
<path d="M30.385 20.7099C24.5175 17.0852 19.7473 11.0387 22.2333 3.8576C22.4616 2.94835 22.4319 1.99349 22.1477 1.10017C22.0655 0.841922 21.5239 -0.411368 21.0825 0.137646C16.3474 6.44016 8.43814 9.38754 0.697393 8.87833C-0.00961146 8.85272 -0.00916617 10.5519 0.00253007 10.9125C0.0278416 11.6954 0.137419 12.8387 0.825214 13.349C6.39238 17.2768 10.5313 23.6514 8.87798 30.6711C8.72158 31.5981 8.84604 32.5508 9.23536 33.4066C9.45896 33.8327 9.98876 34.3479 10.3168 33.6761C14.2024 25.2168 21.5235 22.3907 30.2752 25.1183C30.6332 25.3509 30.8607 25.0585 31.0028 24.6531C31.4988 23.5554 31.2555 20.9648 30.385 20.7099ZM17.6226 20.8189C14.8776 22.1083 12.556 24.1521 10.929 26.7115C10.7599 21.7439 8.88313 16.9864 5.61518 13.2412C10.9509 12.7133 15.9576 10.4193 19.8415 6.72289C19.6078 11.389 21.0889 15.9794 24.0056 19.6291C21.8161 19.5483 19.636 19.9547 17.6226 20.8189Z" fill="#FF42AB"/>
</svg>
