<svg width="33" height="32" viewBox="0 0 33 32" fill="none" xmlns="http://www.w3.org/2000/svg">
<path d="M28.6104 16.0339C29.3688 15.5306 27.5679 13.7842 27.1232 13.6314C24.9629 12.8889 22.8026 12.1464 20.6423 11.4039C20.0495 9.27602 19.4567 7.14816 18.8639 5.02028C18.771 4.68693 17.4273 2.61538 16.953 3.24551C15.353 5.37655 13.7495 7.49455 12.1497 9.6254C9.49265 9.55166 6.83932 9.40376 4.18227 9.30234C3.43524 9.27061 4.40572 10.8046 4.48072 10.9116C5.79238 12.7826 7.10405 14.6537 8.41573 16.5247C7.52714 18.9098 6.63853 21.295 5.74992 23.6802C5.51448 24.3121 6.80754 26.1989 7.53401 25.9763C10.0387 25.209 12.5435 24.4417 15.0482 23.6744C16.9921 25.217 18.9361 26.7595 20.88 28.3021C21.1945 28.5505 21.822 28.902 21.8535 28.2307C21.8975 25.6305 21.9414 23.0303 21.9854 20.4302C24.1937 18.9647 26.402 17.4993 28.6104 16.0339ZM20.9303 17.5214C20.6443 17.7112 20.0885 17.9303 19.9378 18.2586C19.8016 20.7119 19.8869 23.2354 19.7966 25.7097C17.8569 24.2519 16.0302 22.5707 14.048 21.2095C13.5934 21.0425 13.1382 21.2996 12.6891 21.4371C11.4523 21.816 10.2155 22.1949 8.97873 22.5738C9.41038 21.4151 9.84203 20.2564 10.2737 19.0977C10.4723 18.5647 10.719 18.1661 10.5154 17.5969C9.39059 15.5876 7.84114 13.7688 6.57221 11.8285C8.99386 11.87 11.4679 12.1421 13.8665 12.108C14.1935 11.9619 14.4723 11.3807 14.6821 11.1018C15.7112 9.73458 16.7403 8.36732 17.7694 7.00005C19.5352 13.1788 18.5453 12.9189 24.8825 14.8987C23.5651 15.773 22.2477 16.6472 20.9303 17.5214ZM4.67409 0.497148C4.44357 0.168713 5.21991 0.0355822 5.38423 0.0166612C5.73829 -0.0240273 6.38451 -0.0129302 6.61587 0.316687C7.73743 1.91942 9.05935 3.37215 10.5495 4.63952C10.888 4.92664 10.4445 5.11569 10.1798 5.18095C9.71718 5.29359 9.22942 5.23444 8.80715 5.01449C7.24269 3.69089 5.85376 2.17282 4.67409 0.497148ZM31.4538 5.67327C29.2475 6.28887 27.1527 7.25054 25.2476 8.52244C25.054 8.66607 24.8294 8.76231 24.5918 8.80345C24.3543 8.84458 24.1104 8.82946 23.8797 8.75929C23.4737 8.56504 23.7289 8.14414 24.0039 7.96086C26.194 6.49779 28.5994 5.38612 31.1329 4.66615C31.4129 4.58704 32.1197 4.45212 32.2511 4.86458C32.3788 5.26528 31.7492 5.58973 31.4538 5.67327ZM5.85078 18.0863C4.26601 18.7618 2.81473 19.715 1.56542 20.9012C1.15032 21.2719 -0.233496 20.0671 0.0340595 19.5988C1.34054 18.3645 2.85641 17.3726 4.51067 16.6698C4.9367 16.6095 5.34218 16.9836 5.63207 17.2599C5.78351 17.415 6.20911 17.9339 5.85078 18.0863ZM15.526 29.2365C15.4681 29.886 15.4253 30.5366 15.3976 31.1884C15.3495 32.0072 14.2273 32.0067 13.7427 31.5654C13.6559 31.498 13.5834 31.414 13.5293 31.3184C13.4753 31.2228 13.4407 31.1174 13.4276 31.0083C13.4883 29.6124 13.618 28.2203 13.8077 26.836C14.077 26.1105 15.2156 26.2888 15.6019 26.8276C15.9507 27.448 15.4934 28.5069 15.526 29.2365ZM29.9316 26.2935C30.3368 26.8588 28.5829 27.4936 28.1999 27.1915C26.9212 25.6319 25.6244 24.0874 24.3097 22.5578C23.8959 21.9979 25.6723 21.3512 26.0415 21.6598C27.3561 23.1893 28.6528 24.7338 29.9316 26.2935Z" fill="#1B255F"/>
</svg>
